<svg width="24" height="24" viewBox="0 0 24 24" fill="none" xmlns="http://www.w3.org/2000/svg">
<path d="M23.04 0H0.96C0.429 0 0 0.429 0 0.96V23.04C0 23.571 0.429 24 0.96 24H23.04C23.571 24 24 23.571 24 23.04V0.96C24 0.429 23.571 0 23.04 0ZM22.08 22.08H16.557V14.706H19.677L20.145 11.085H16.557V8.772C16.557 7.722 16.848 7.008 18.351 7.008H20.268V3.768C19.935 3.723 18.798 3.624 17.472 3.624C14.706 3.624 12.813 5.313 12.813 8.412V11.082H9.687V14.703H12.816V22.08H1.92V1.92H22.08V22.08Z" fill="white"/>
</svg>
