<svg width="65" height="55" viewBox="0 0 65 55" fill="none" xmlns="http://www.w3.org/2000/svg">
<path d="M29.9969 12.6866C32.2123 14.525 33.1618 16.7293 33.349 18.6297C33.4426 19.5802 33.3444 20.4456 33.1258 21.1409C32.9033 21.8487 32.5712 22.3335 32.2471 22.5737C32.1822 22.6218 32.0154 22.698 31.6914 22.7653C31.3806 22.8299 30.9749 22.8763 30.4882 22.8954C29.516 22.9335 28.2694 22.8611 26.9103 22.6405C24.1852 22.1982 21.0908 21.1744 18.8772 19.3375C16.6561 17.4943 15.2449 14.7705 14.5552 12.3623C14.2116 11.1627 14.0529 10.0614 14.0564 9.21211C14.0581 8.78651 14.1006 8.43666 14.1737 8.17475C14.2515 7.89606 14.3465 7.78144 14.3861 7.75209L14.386 7.75217C14.386 7.75217 14.3941 7.74648 14.4157 7.73745C14.4388 7.72784 14.4732 7.7161 14.522 7.70406C14.6213 7.67958 14.7601 7.65862 14.9435 7.64637C15.3109 7.62184 15.8027 7.63567 16.3995 7.6931C17.5898 7.80763 19.1269 8.08849 20.7794 8.52092C24.099 9.38959 27.7717 10.8401 29.9969 12.6866Z" stroke="#728175"/>
<path d="M34.9734 12.2191C32.7602 14.0556 31.7478 16.3774 31.5025 18.4037C31.3799 19.4159 31.4506 20.3419 31.6496 21.0822C31.8532 21.8394 32.1745 22.3419 32.4873 22.5737C32.5574 22.6257 32.7203 22.7008 33.0217 22.7668C33.313 22.8305 33.6912 22.8765 34.1451 22.8954C35.052 22.9333 36.2133 22.8615 37.4881 22.6417C40.0411 22.2014 42.9781 21.1803 45.1988 19.3375C47.4297 17.4861 49.0042 14.7522 49.8568 12.3411C50.2818 11.1392 50.5204 10.0373 50.5759 9.18831C50.6037 8.76272 50.5845 8.41471 50.5277 8.15558C50.4669 7.87859 50.3782 7.77421 50.3483 7.75209C50.3195 7.73075 50.1698 7.66305 49.7788 7.62444C49.4162 7.58863 48.9328 7.58575 48.3477 7.62195C47.1804 7.69417 45.6743 7.91767 44.0538 8.29188C40.7976 9.04382 37.1922 10.3778 34.9734 12.2191Z" stroke="#728175"/>
<path d="M43.6852 26.6153C40.3548 26.6153 37.4206 25.8296 35.3311 24.8272C34.285 24.3254 33.4666 23.7769 32.9182 23.2598C32.3476 22.7217 32.153 22.2983 32.153 22.0492C32.153 22.0191 32.1734 21.9082 32.3069 21.7074C32.4336 21.5169 32.6337 21.2884 32.9121 21.0344C33.4679 20.5274 34.294 19.957 35.3423 19.4216C37.4373 18.3515 40.3679 17.447 43.6852 17.447C47.0129 17.447 50.7874 18.3565 53.7369 19.4454C55.21 19.9892 56.4586 20.5711 57.3299 21.0937C57.7676 21.3563 58.0927 21.5937 58.3018 21.7927C58.4063 21.8921 58.4694 21.9704 58.5037 22.0258C58.5093 22.0349 58.5137 22.0426 58.5172 22.0491C58.5138 22.0554 58.5095 22.063 58.504 22.0718C58.4699 22.1268 58.4069 22.2046 58.3026 22.3035C58.0937 22.5015 57.7687 22.7375 57.3311 22.9984C56.4599 23.5177 55.2113 24.0951 53.7381 24.6345C50.7887 25.7145 47.0137 26.6153 43.6852 26.6153Z" fill="black" stroke="#728175"/>
<path d="M20.3411 16.7692C23.6591 16.7692 26.5856 17.6706 28.6729 18.8038C29.7175 19.371 30.5378 19.9885 31.0895 20.5662C31.6603 21.1638 31.8733 21.6437 31.8733 21.9387C31.8733 21.9864 31.8474 22.1096 31.7152 22.3153C31.5883 22.5126 31.3884 22.7468 31.1105 23.0055C30.5556 23.522 29.7305 24.0981 28.6828 24.637C26.589 25.7139 23.6588 26.6152 20.3411 26.6152C17.0132 26.6152 13.2388 25.709 10.2905 24.6129C8.81774 24.0654 7.5703 23.4776 6.70024 22.945C6.2633 22.6776 5.93904 22.4346 5.73055 22.2294C5.55502 22.0567 5.51311 21.9612 5.50312 21.9381C5.50714 21.927 5.51527 21.9078 5.53129 21.8799C5.56855 21.8148 5.63455 21.7268 5.74005 21.6172C5.9513 21.3977 6.27801 21.1357 6.71553 20.8456C7.58708 20.2676 8.83534 19.6194 10.3072 19.0114C13.2556 17.7936 17.0235 16.7692 20.3411 16.7692Z" fill="black" stroke="#728175"/>
<path d="M37.9963 11.7773C37.9963 14.2823 37.1616 16.4914 36.0435 18.0674C35.4845 18.8553 34.8618 19.475 34.2498 19.8937C33.6332 20.3156 33.0568 20.5143 32.5814 20.5143C32.2807 20.5143 31.7841 20.3354 31.1678 19.8985C30.5688 19.4738 29.9149 18.8464 29.309 18.0532C28.0962 16.4653 27.1105 14.26 27.1105 11.7773C27.1105 9.27704 28.1083 6.41747 29.3494 4.1694C29.9678 3.04914 30.6346 2.10307 31.2452 1.44492C31.5509 1.11534 31.832 0.869445 32.0755 0.709436C32.3273 0.543991 32.4938 0.5 32.5814 0.5C32.6687 0.5 32.8341 0.543726 33.0839 0.708762C33.3256 0.868451 33.6045 1.11401 33.9076 1.44342C34.5129 2.10124 35.1727 3.04706 35.7844 4.16734C37.0116 6.41514 37.9963 9.27552 37.9963 11.7773Z" fill="black" stroke="#728175"/>
<path d="M0.913086 40.3067L3.28174 44.5659L5.67188 40.3067H6.43457L3.61475 45.1783V48.127H2.9541V45.1783L0.128906 40.3067H0.913086ZM13.6314 43.7979V44.6358C13.6314 45.1836 13.5598 45.6796 13.4166 46.1236C13.2769 46.564 13.0728 46.9418 12.8043 47.2569C12.5393 47.572 12.2206 47.8137 11.8482 47.982C11.4758 48.1503 11.0569 48.2344 10.5914 48.2344C10.1366 48.2344 9.72125 48.1503 9.34527 47.982C8.97288 47.8137 8.6524 47.572 8.38385 47.2569C8.11529 46.9418 7.90761 46.564 7.7608 46.1236C7.61399 45.6796 7.54059 45.1836 7.54059 44.6358V43.7979C7.54059 43.25 7.6122 42.7559 7.75543 42.3155C7.90224 41.8714 8.10992 41.4919 8.37848 41.1768C8.64703 40.8617 8.96751 40.62 9.3399 40.4517C9.7123 40.2834 10.1259 40.1992 10.5806 40.1992C11.0461 40.1992 11.4651 40.2834 11.8375 40.4517C12.2099 40.62 12.5303 40.8617 12.7989 41.1768C13.0674 41.4919 13.2733 41.8714 13.4166 42.3155C13.5598 42.7559 13.6314 43.25 13.6314 43.7979ZM12.9761 44.6358V43.7871C12.9761 43.3252 12.9224 42.9099 12.815 42.541C12.7112 42.1722 12.5554 41.8571 12.3477 41.5957C12.1436 41.3343 11.893 41.1338 11.5958 40.9942C11.2986 40.8545 10.9602 40.7847 10.5806 40.7847C10.2118 40.7847 9.88059 40.8545 9.58697 40.9942C9.29335 41.1338 9.0427 41.3343 8.83502 41.5957C8.63092 41.8571 8.47337 42.1722 8.36236 42.541C8.25494 42.9099 8.20123 43.3252 8.20123 43.7871V44.6358C8.20123 45.1013 8.25494 45.5202 8.36236 45.8926C8.47337 46.2614 8.63271 46.5783 8.84039 46.8433C9.04807 47.1047 9.29872 47.3052 9.59234 47.4449C9.88954 47.5845 10.2226 47.6543 10.5914 47.6543C10.9745 47.6543 11.3129 47.5845 11.6065 47.4449C11.9001 47.3052 12.149 47.1047 12.3531 46.8433C12.5572 46.5783 12.7112 46.2614 12.815 45.8926C12.9224 45.5202 12.9761 45.1013 12.9761 44.6358ZM21.3815 44.4102V47.1924C21.2919 47.3249 21.138 47.4717 20.9196 47.6328C20.7011 47.794 20.4075 47.9354 20.0387 48.0572C19.6699 48.1753 19.2115 48.2344 18.6637 48.2344C18.2054 48.2344 17.7846 48.152 17.4015 47.9873C17.0183 47.8226 16.6853 47.5845 16.4025 47.273C16.1232 46.9579 15.9065 46.5801 15.7526 46.1397C15.6022 45.6992 15.527 45.2051 15.527 44.6573V43.7119C15.527 43.1748 15.5968 42.6914 15.7364 42.2617C15.8761 41.8285 16.0784 41.4579 16.3434 41.1499C16.6084 40.842 16.927 40.6075 17.2994 40.4463C17.6754 40.2816 18.0961 40.1992 18.5616 40.1992C19.1417 40.1992 19.6305 40.2995 20.0279 40.5C20.4254 40.7006 20.7351 40.9763 20.9571 41.3272C21.1827 41.6745 21.3224 42.0684 21.3761 42.5088H20.7154C20.6653 42.1973 20.5615 41.9108 20.4039 41.6494C20.2464 41.3845 20.0172 41.1714 19.7164 41.0103C19.4192 40.8492 19.0343 40.7686 18.5616 40.7686C18.1821 40.7686 17.8437 40.8384 17.5465 40.9781C17.2529 41.1177 17.0058 41.3164 16.8053 41.5742C16.6048 41.8321 16.4526 42.1418 16.3488 42.5034C16.2449 42.8615 16.193 43.2608 16.193 43.7012V44.6573C16.193 45.1156 16.2503 45.5292 16.3649 45.898C16.483 46.2668 16.6513 46.5837 16.8697 46.8487C17.0882 47.1136 17.3496 47.3177 17.6539 47.461C17.9583 47.6006 18.2967 47.6704 18.6691 47.6704C19.0665 47.6704 19.4049 47.6328 19.6842 47.5576C19.9635 47.4825 20.1873 47.3929 20.3556 47.2891C20.5275 47.1817 20.651 47.0814 20.7262 46.9883V44.9742H18.6261V44.4102H21.3815ZM26.2795 40.774L23.5724 48.127H22.8849L25.839 40.3067H26.3171L26.2795 40.774ZM28.7394 48.127L26.027 40.774L25.9894 40.3067H26.4675L29.4269 48.127H28.7394ZM28.256 45.3662V45.9356H24.1042V45.3662H28.256ZM33.6858 44.9419H31.4568V44.378H33.6858C34.1513 44.378 34.529 44.3028 34.8191 44.1524C35.1127 43.9984 35.3258 43.7907 35.4582 43.5293C35.5943 43.2679 35.6623 42.9743 35.6623 42.6485C35.6623 42.3298 35.5943 42.0362 35.4582 41.7676C35.3258 41.4991 35.1127 41.2842 34.8191 41.1231C34.529 40.9584 34.1513 40.876 33.6858 40.876H31.6877V48.127H31.0271V40.3067H33.6858C34.2587 40.3067 34.7403 40.4051 35.1306 40.6021C35.5245 40.799 35.8217 41.0729 36.0222 41.4239C36.2227 41.7748 36.323 42.1794 36.323 42.6377C36.323 43.1175 36.2227 43.5311 36.0222 43.8784C35.8217 44.2222 35.5263 44.4854 35.136 44.668C34.7457 44.8506 34.2623 44.9419 33.6858 44.9419ZM42.7679 47.563V48.127H38.7127V47.563H42.7679ZM38.9061 40.3067V48.127H38.2454V40.3067H38.9061ZM47.161 40.774L44.454 48.127H43.7665L46.7206 40.3067H47.1986L47.161 40.774ZM49.621 48.127L46.9086 40.774L46.871 40.3067H47.349L50.3085 48.127H49.621ZM49.1376 45.3662V45.9356H44.9857V45.3662H49.1376ZM56.7157 45.6885H57.3764C57.3227 46.2149 57.1777 46.6696 56.9413 47.0528C56.705 47.4323 56.3827 47.7242 55.9745 47.9283C55.5663 48.1324 55.074 48.2344 54.4975 48.2344C54.0535 48.2344 53.6506 48.1503 53.289 47.982C52.9309 47.8137 52.623 47.5756 52.3652 47.2676C52.1073 46.9561 51.9086 46.5837 51.769 46.1504C51.6293 45.7172 51.5595 45.2355 51.5595 44.7056V43.7281C51.5595 43.1981 51.6293 42.7183 51.769 42.2886C51.9086 41.8553 52.1091 41.4829 52.3705 41.1714C52.6319 40.8599 52.9452 40.62 53.3105 40.4517C53.6757 40.2834 54.0875 40.1992 54.5458 40.1992C55.1008 40.1992 55.5807 40.3013 55.9853 40.5054C56.3899 40.7059 56.7086 40.996 56.9413 41.3755C57.1777 41.7551 57.3227 42.2134 57.3764 42.7505H56.7157C56.6656 42.328 56.5546 41.9699 56.3827 41.6763C56.2109 41.3827 55.9727 41.1589 55.6684 41.0049C55.3676 40.8474 54.9934 40.7686 54.5458 40.7686C54.1806 40.7686 53.8547 40.8384 53.5683 40.9781C53.2818 41.1177 53.0383 41.3182 52.8378 41.5796C52.6373 41.8374 52.4833 42.1472 52.3759 42.5088C52.2721 42.8705 52.2201 43.2733 52.2201 43.7173V44.7056C52.2201 45.1353 52.2703 45.531 52.3705 45.8926C52.4708 46.2543 52.6176 46.5676 52.811 46.8326C53.0079 47.0975 53.2478 47.3034 53.5307 47.4502C53.8136 47.597 54.1358 47.6704 54.4975 47.6704C54.9594 47.6704 55.3443 47.597 55.6523 47.4502C55.9638 47.2998 56.2055 47.0778 56.3774 46.7842C56.5492 46.4906 56.662 46.1254 56.7157 45.6885ZM64.2886 47.563V48.127H59.8896V47.563H64.2886ZM60.0884 40.3067V48.127H59.4277V40.3067H60.0884ZM63.7407 43.814V44.378H59.8896V43.814H63.7407ZM64.2617 40.3067V40.876H59.8896V40.3067H64.2617Z" fill="white"/>
</svg>
