<svg width="20" height="20" viewBox="0 0 20 20" fill="none" xmlns="http://www.w3.org/2000/svg">
<path d="M18.557 3.59453L16.0609 1.10078C15.7562 0.796094 15.3484 0.625 14.9172 0.625C14.4859 0.625 14.0781 0.79375 13.7734 1.10078L11.0852 3.78438C10.7805 4.08906 10.6094 4.49922 10.6094 4.93047C10.6094 5.36406 10.7781 5.76953 11.0852 6.07656L13.1852 8.17891C12.7068 9.29356 12.0194 10.3063 11.1602 11.1625C10.3 12.0273 9.29453 12.7094 8.17891 13.1922L6.07891 11.0898C5.77422 10.7852 5.36641 10.6141 4.93516 10.6141C4.72244 10.6133 4.51172 10.655 4.31532 10.7367C4.11892 10.8183 3.9408 10.9384 3.79141 11.0898L1.10078 13.7734C0.796094 14.0781 0.625 14.4883 0.625 14.9195C0.625 15.3531 0.79375 15.7586 1.10078 16.0656L3.59453 18.5594C4.11484 19.0797 4.83203 19.3773 5.56797 19.3773C5.72031 19.3773 5.86797 19.3656 6.01797 19.3398C9.12109 18.8289 12.2008 17.1766 14.6875 14.6922C17.1719 12.2031 18.8219 9.12344 19.3375 6.01797C19.4852 5.13672 19.1898 4.22969 18.557 3.59453ZM17.6758 5.73906C17.2188 8.50234 15.7328 11.2586 13.4945 13.4969C11.2562 15.7352 8.50234 17.2211 5.73906 17.6781C5.39219 17.7367 5.03594 17.6195 4.78281 17.3688L2.33359 14.9195L4.93047 12.3203L7.73828 15.1328L7.75937 15.1539L8.26562 14.9664C9.80061 14.402 11.1945 13.5107 12.3508 12.354C13.507 11.1974 14.3979 9.80315 14.9617 8.26797L15.1492 7.76172L12.318 4.93281L14.9148 2.33359L17.3641 4.78281C17.6172 5.03594 17.7344 5.39219 17.6758 5.73906Z" fill="white"/>
</svg>
