<svg width="22" height="16" viewBox="0 0 22 16" fill="none" xmlns="http://www.w3.org/2000/svg">
<path d="M21.0617 2.93984C20.9422 2.49462 20.7078 2.0886 20.382 1.76243C20.0563 1.43625 19.6505 1.20136 19.2055 1.08125C17.5672 0.640625 11 0.640625 11 0.640625C11 0.640625 4.43281 0.640625 2.79453 1.07891C2.34927 1.19862 1.94334 1.43339 1.61751 1.75962C1.29169 2.08586 1.05744 2.49208 0.938281 2.9375C0.5 4.57812 0.5 8 0.5 8C0.5 8 0.5 11.4219 0.938281 13.0602C1.17969 13.9648 1.89219 14.6773 2.79453 14.9188C4.43281 15.3594 11 15.3594 11 15.3594C11 15.3594 17.5672 15.3594 19.2055 14.9188C20.1102 14.6773 20.8203 13.9648 21.0617 13.0602C21.5 11.4219 21.5 8 21.5 8C21.5 8 21.5 4.57813 21.0617 2.93984ZM8.91406 11.1406V4.85938L14.3516 7.97656L8.91406 11.1406Z" fill="white"/>
</svg>
